<?xml version="1.0" standalone="no"?>
<!DOCTYPE svg PUBLIC "-//W3C//DTD SVG 20010904//EN"
 "http://www.w3.org/TR/2001/REC-SVG-20010904/DTD/svg10.dtd">
<svg version="1.0" xmlns="http://www.w3.org/2000/svg"
 width="90.000000pt" height="90.000000pt" viewBox="0 0 90.000000 90.000000"
 preserveAspectRatio="xMidYMid meet">
<metadata>
Created by potrace 1.11, written by Peter Selinger 2001-2013
</metadata>
<g transform="translate(0.000000,90.000000) scale(0.100000,-0.100000)"
fill="#000000" stroke="none">
<path d="M352 847 c-57 -11 -107 -63 -122 -128 -12 -48 -13 -49 -49 -49 -82 0
-155 -45 -146 -91 4 -20 71 -89 84 -87 25 2 20 -5 -16 -21 -68 -31 -95 -88
-78 -166 8 -40 31 -64 82 -87 23 -10 44 -26 47 -36 9 -28 158 -123 197 -126
53 -4 120 12 159 38 26 17 41 21 52 15 9 -5 46 -11 83 -13 57 -3 70 -1 91 17
30 26 36 53 18 88 -11 23 -10 30 11 61 13 20 31 38 38 41 26 10 68 74 71 110
7 66 -44 140 -109 161 -11 3 -33 30 -50 58 -39 68 -131 159 -187 186 -59 29
-124 40 -176 29z"/>
</g>
</svg>
